<?xml version="1.0" encoding="UTF-8"?>
<svg width="256" height="256" version="1.1" viewBox="0 0 25.6 25.6" xmlns="http://www.w3.org/2000/svg"
	xmlns:xlink="http://www.w3.org/1999/xlink">
	<defs>
		<filter id="filter1178" x="-.06" y="-.06" width="1.12" height="1.12" color-interpolation-filters="sRGB">
			<feGaussianBlur stdDeviation="0.50786129" />
		</filter>
		<filter id="filter2794" x="-.054369" y="-.066932" width="1.1087" height="1.1339"
			color-interpolation-filters="sRGB">
			<feGaussianBlur stdDeviation="0.42373078" />
		</filter>
		<filter id="filter3202" x="-.060331" y="-.059672" width="1.1207" height="1.1193"
			color-interpolation-filters="sRGB">
			<feGaussianBlur stdDeviation="0.43216339" />
		</filter>
		<filter id="filter10261" x="-.060001" y="-.059999" width="1.12" height="1.12"
			color-interpolation-filters="sRGB">
			<feGaussianBlur stdDeviation="1.6411865" />
		</filter>
		<filter id="filter10613" x="-.059605" y="-.0604" width="1.1192" height="1.1208"
			color-interpolation-filters="sRGB">
			<feGaussianBlur stdDeviation="0.47262935" />
		</filter>
		<filter id="filter13591" x="-.11815" y="-.060057" width="1.2363" height="1.1201"
			color-interpolation-filters="sRGB">
			<feGaussianBlur stdDeviation="0.35710933" />
		</filter>
	</defs>
	<style>
      @keyframes pan {
         0% {
            transform: translate(25.4px, 25.4px);
         }

         10% {
            transform: translate(50.8px, 25.4px);
         }

         20% {
            transform: translate(25.4px, 25.4px);
         }

         30% {
            transform: translate(0px, 25.4px);
         }

         40% {
            transform: translate(-25.4px, 25.4px);
         }

         60% {
            transform: translate(25.4px, 25.4px);
         }

         70% {
            transform: translate(25.4px, 0px);
         }

         80% {
            transform: translate(25.4px, 25.4px);
         }

         90% {
            transform: translate(25.4px, 50.7px);
         }

         100% {
            transform: translate(25.4px, 25.4px);
         }
      }

      #root {
         animation: pan 10s cubic-bezier(0.23, 1, 0.320, 1) 0s infinite normal both;
      }
   </style>
	<g id="root" transform="translate(25.4 25.4)">
		<g transform="translate(0 -271.6)">
			<g transform="translate(-25.4 -25.4)">
				<g filter="url(#filter1178)" opacity=".534">
					<g transform="rotate(45 18.028 282.48)" opacity="1" shape-rendering="auto">
						<g transform="translate(-24.006 7.8032)">
							<path
								d="m39.288 282.66v-2.9257c0-1.6071-1.3237-2.9308-2.9308-2.9308-1.6081 0.0769-2.9447 1.4422-2.9308 2.9308v2.9257h1.9538v-2.9257c0-0.55112 0.42581-0.97693 0.97693-0.97693 0.55111 0 0.97692 0.42581 0.97692 0.97693v2.9257z"
								color="#000000" color-rendering="auto" dominant-baseline="auto" image-rendering="auto"
								solid-color="#000000"
								style="font-feature-settings:normal;font-variant-alternates:normal;font-variant-caps:normal;font-variant-ligatures:normal;font-variant-numeric:normal;font-variant-position:normal;isolation:auto;mix-blend-mode:normal;shape-padding:0;text-decoration-color:#000000;text-decoration-line:none;text-decoration-style:solid;text-indent:0;text-orientation:mixed;text-transform:none;white-space:normal" />
							<path d="m33.427 276.8v5.8617h1.9539v-5.8617z" color="#000000" color-rendering="auto"
								dominant-baseline="auto" image-rendering="auto" solid-color="#000000"
								style="font-feature-settings:normal;font-variant-alternates:normal;font-variant-caps:normal;font-variant-ligatures:normal;font-variant-numeric:normal;font-variant-position:normal;isolation:auto;mix-blend-mode:normal;shape-padding:0;text-decoration-color:#000000;text-decoration-line:none;text-decoration-style:solid;text-indent:0;text-orientation:mixed;text-transform:none;white-space:normal" />
						</g>
						<g transform="translate(-23.965 4.2886)">
							<path d="m39.777 280.32v5.8617h1.9539v-5.8617z" color="#000000" color-rendering="auto"
								dominant-baseline="auto" image-rendering="auto" solid-color="#000000"
								style="font-feature-settings:normal;font-variant-alternates:normal;font-variant-caps:normal;font-variant-ligatures:normal;font-variant-numeric:normal;font-variant-position:normal;isolation:auto;mix-blend-mode:normal;shape-padding:0;text-decoration-color:#000000;text-decoration-line:none;text-decoration-style:solid;text-indent:0;text-orientation:mixed;text-transform:none;white-space:normal" />
							<path
								d="m45.637 280.32h-0.97524c-1.6071 0-2.9308 1.3237-2.9308 2.9308 0.0769 1.6081 1.4422 2.9447 2.9308 2.9308h0.97524v-1.9538h-0.97524c-0.55112 0-0.97693-0.42582-0.97693-0.97693s0.42581-0.97692 0.97693-0.97692h0.97524z"
								color="#000000" color-rendering="auto" dominant-baseline="auto" image-rendering="auto"
								solid-color="#000000"
								style="font-feature-settings:normal;font-variant-alternates:normal;font-variant-caps:normal;font-variant-ligatures:normal;font-variant-numeric:normal;font-variant-position:normal;isolation:auto;mix-blend-mode:normal;shape-padding:0;text-decoration-color:#000000;text-decoration-line:none;text-decoration-style:solid;text-indent:0;text-orientation:mixed;text-transform:none;white-space:normal" />
						</g>
					</g>
					<path
						d="m12.699 274.14c-5.5977 0-10.156 4.5605-10.156 10.158 0 5.5977 4.5585 10.156 10.156 10.156 5.5977 0 10.158-4.5585 10.158-10.156s-4.5605-10.158-10.158-10.158zm0 2.0898c4.4681 0 8.0684 3.6003 8.0684 8.0684s-3.6003 8.0664-8.0684 8.0664-8.0664-3.5983-8.0664-8.0664 3.5983-8.0684 8.0664-8.0684z"
						color="#000000" stroke-linecap="round" stroke-linejoin="round"
						style="-inkscape-stroke:none;paint-order:stroke fill markers" />
				</g>
				<path
					d="m12.699 274.14c-5.5977 0-10.156 4.5605-10.156 10.158 0 5.5977 4.5586 10.156 10.156 10.156 5.5977 0 10.158-4.5585 10.158-10.156 0-5.5977-4.5605-10.158-10.158-10.158zm0 2.0898c4.468 0 8.0684 3.6003 8.0684 8.0684 0 4.4681-3.6003 8.0664-8.0684 8.0664-4.468 0-8.0664-3.5983-8.0664-8.0664 0-4.4681 3.5984-8.0684 8.0664-8.0684z"
					color="#000000" fill="#fff" stroke-linecap="round" stroke-linejoin="round"
					style="-inkscape-stroke:none;paint-order:stroke fill markers" />
				<g transform="rotate(45 18.028 282.48)" fill="#fff">
					<g transform="translate(-24.006 7.8032)">
						<path transform="matrix(.18709 -.18709 .18709 .18709 21.591 279.73)"
							d="m39.463 23.797-7.6602 7.6621c-0.06316 0.06082-0.12397 0.1228-0.18555 0.18555l-7.8203 7.8184 5.2227 5.2207 7.8184-7.8184c0.0059-0.0059 0.01164-0.01171 0.01758-0.01758 1.4734-1.4552 3.7381-1.4494 5.2051 0.01758 1.4729 1.4729 1.4729 3.7498 0 5.2227l-7.8203 7.8184 5.2227 5.2227 7.8184-7.8203c4.2949-4.2949 4.2949-11.369 0-15.664-0.95569-0.86845-2.0326-1.5498-3.1758-2.0449l0.58008-0.58008z"
							color="#000000" color-rendering="auto" dominant-baseline="auto" fill="#fff"
							image-rendering="auto" shape-rendering="auto" solid-color="#000000"
							style="font-feature-settings:normal;font-variant-alternates:normal;font-variant-caps:normal;font-variant-ligatures:normal;font-variant-numeric:normal;font-variant-position:normal;isolation:auto;mix-blend-mode:normal;shape-padding:0;text-decoration-color:#000000;text-decoration-line:none;text-decoration-style:solid;text-indent:0;text-orientation:mixed;text-transform:none;white-space:normal" />
					</g>
					<g transform="translate(-23.965 4.2886)">
						<path transform="matrix(.18709 -.18709 .18709 .18709 21.551 283.25)"
							d="m56.543 40.877-15.666 15.666 5.2207 5.2207 7.834-7.832 7.832-7.834zm-2.6113 13.055c-4.0921 4.5031-4.0155 11.723 0 15.664l2.6055 2.6074 5.2227-5.2227-2.6074-2.6055c-1.4729-1.4729-1.4729-3.7498 0-5.2227s3.7498-1.4729 5.2227 0l2.6055 2.6074 5.2227-5.2227-2.6074-2.6055c-4.2949-4.2949-11.369-4.2949-15.664 0z"
							color="#000000" color-rendering="auto" dominant-baseline="auto" fill="#fff"
							image-rendering="auto" shape-rendering="auto" solid-color="#000000"
							style="font-feature-settings:normal;font-variant-alternates:normal;font-variant-caps:normal;font-variant-ligatures:normal;font-variant-numeric:normal;font-variant-position:normal;isolation:auto;mix-blend-mode:normal;shape-padding:0;text-decoration-color:#000000;text-decoration-line:none;text-decoration-style:solid;text-indent:0;text-orientation:mixed;text-transform:none;white-space:normal" />
					</g>
				</g>
			</g>
			<g transform="translate(-25.4 -27.349)" clip-rule="evenodd">
				<path
					d="m38.595 276.7c-0.26179 3.7e-4 -0.52867 0.0746-0.73949 0.22221-0.42625 0.29824-0.475 0.79115-0.0956 1.1022l-0.0016 2e-3 2.4371 1.9818-7.428 8e-3h-0.0098c-0.61397 6.9e-4 -1.2046 0.40304-1.3214 0.91209-0.12009 0.51861 0.29696 0.94905 0.93534 0.95136l-5.29e-4 2e-3 3.7646-7e-3 -6.7185 5.1568c-0.0086 6e-3 -0.01741 0.0129-0.02532 0.0191-0.63377 0.4853-0.83896 1.2923-0.43977 1.803 0.40514 0.51929 1.2665 0.52037 1.9069 3e-3l3.667-3.0008s-0.05339 0.40541-0.04909 0.64854l-5.3e-4 -1e-3c0.0043 0.24413 0.08216 0.71832 0.19895 1.0888 0.24546 0.78419 0.66194 1.5099 1.2413 2.1492 0.59451 0.65717 1.3269 1.1853 2.1725 1.5601 0.8888 0.39358 1.8517 0.59386 2.852 0.59221 0.99866-1e-3 1.9617-0.20599 2.8505-0.60255 0.84558-0.37841 1.5769-0.90828 2.1704-1.5658 0.579-0.64201 0.99464-1.3686 1.2408-2.1528 0.12372-0.39622 0.20172-0.79851 0.23306-1.202 0.03068-0.39754 0.01818-0.79584-0.03824-1.1937-0.11019-0.7753-0.37863-1.5026-0.79168-2.1658-0.37775-0.60935-0.86484-1.1431-1.4438-1.5922l0.0016-5.3e-4 -5.8431-4.4866c-0.0053-4e-3 -0.0094-8e-3 -0.01497-0.0119-0.19168-0.14714-0.44876-0.22051-0.71055-0.22014zm2.3446 5.1707c0.97886-1e-3 1.9128 0.31974 2.6479 0.91622 0.37413 0.30483 0.67724 0.66521 0.89762 1.0651 0.22533 0.40711 0.36512 0.85568 0.40669 1.3291 0.04157 0.48233-0.02207 0.96048-0.18603 1.4118-0.1676 0.46023-0.43801 0.89102-0.80718 1.2671-0.75551 0.76969-1.813 1.2064-2.9574 1.2087-1.1461 2e-3 -2.204-0.43054-2.9595-1.1989-0.36917-0.37445-0.64044-0.80562-0.8077-1.2645-0.16397-0.45099-0.22775-0.92933-0.18552-1.4123 0.03992-0.47211 0.1808-0.92271 0.40514-1.3302 0.22038-0.40052 0.52387-0.76252 0.89865-1.0687 0.7344-0.59847 1.6695-0.92214 2.6474-0.92346zm0.08423 1.1896c-0.66379 0-1.2719 0.2338-1.7239 0.6165-0.4609 0.38963-0.76653 0.93934-0.8015 1.5632-0.0353 0.64035 0.22154 1.236 0.67386 1.6774 0.46056 0.44902 1.1175 0.73071 1.8516 0.73071 0.73406 0 1.3896-0.28169 1.8505-0.73071 0.45199-0.44142 0.70935-1.0369 0.67438-1.6779-0.0353-0.6232-0.34042-1.1731-0.80098-1.5627-0.45232-0.3827-1.0608-0.6165-1.7239-0.6165z"
					filter="url(#filter2794)" opacity=".534" />
				<path transform="matrix(.26458 0 0 .26458 0 271.6)"
					d="m145.87 19.287c-0.98943 0.0014-1.9981 0.28182-2.7949 0.83984-1.611 1.1272-1.7953 2.9902-0.36133 4.166l-6e-3 0.0078 9.2109 7.4902-28.074 0.03125h-0.0371c-2.3205 0.0026-4.5527 1.5233-4.9941 3.4473-0.45387 1.9601 1.1224 3.587 3.5352 3.5957l-2e-3 0.0078 14.229-0.02734-25.393 19.49c-0.0325 0.02268-0.0658 0.04883-0.0957 0.07227-2.3954 1.8342-3.1709 4.8842-1.6621 6.8145 1.5312 1.9627 4.7868 1.9668 7.207 0.01172l13.859-11.342s-0.2018 1.5323-0.18555 2.4512l-2e-3 -0.0039c0.0163 0.9227 0.31054 2.7149 0.75195 4.1152 0.92772 2.9639 2.5018 5.7065 4.6914 8.123 2.247 2.4838 5.0151 4.48 8.2109 5.8965 3.3592 1.4875 6.9986 2.2445 10.779 2.2383 3.7744-0.0038 7.4142-0.77854 10.773-2.2773 3.1959-1.4302 5.9599-3.4329 8.2031-5.918 2.1884-2.4265 3.7592-5.1728 4.6895-8.1367 0.46759-1.4975 0.7624-3.018 0.88086-4.543 0.11595-1.5025 0.0687-3.0079-0.14454-4.5117-0.41647-2.9303-1.431-5.6793-2.9922-8.1855-1.4277-2.3031-3.2687-4.3205-5.457-6.0176l6e-3 -2e-3 -22.084-16.957c-0.02-0.01512-0.0356-0.03018-0.0566-0.04492-0.72446-0.55612-1.6961-0.83344-2.6856-0.83203zm8.8613 19.543c3.6996-0.0038 7.2297 1.2085 10.008 3.4629 1.414 1.1521 2.5596 2.5141 3.3926 4.0254 0.85165 1.5387 1.38 3.2341 1.5371 5.0234 0.15712 1.823-0.0834 3.6302-0.70312 5.3359-0.63344 1.7395-1.6555 3.3676-3.0508 4.7891-2.8555 2.9091-6.8522 4.5597-11.178 4.5684-4.3318 0.0076-8.3301-1.6272-11.186-4.5312-1.3953-1.4152-2.4205-3.0449-3.0527-4.7793-0.61972-1.7045-0.86078-3.5124-0.70117-5.3379 0.15088-1.7844 0.68334-3.4874 1.5312-5.0273 0.83295-1.5138 1.98-2.882 3.3965-4.0391 2.7757-2.2619 6.31-3.4852 10.006-3.4902zm0.31836 4.4961c-2.5088 0-4.8073 0.88365-6.5156 2.3301-1.742 1.4726-2.8971 3.5503-3.0293 5.9082-0.13343 2.4202 0.83733 4.6715 2.5469 6.3398 1.7407 1.6971 4.2236 2.7617 6.998 2.7617 2.7744 0 5.2522-1.0646 6.9941-2.7617 1.7083-1.6684 2.681-3.919 2.5488-6.3418-0.13342-2.3554-1.2866-4.4336-3.0273-5.9062-1.7095-1.4464-4.0093-2.3301-6.5156-2.3301z"
					fill="#fff" />
			</g>
			<g transform="matrix(.84385 0 0 .84404 -15.485 17.133)" stroke-width="1.1849">
				<path transform="matrix(1.0637 0 0 1.0636 -4.0454 -18.091)"
					d="m63.398 275.61c-0.70888 4e-3 -1.3858 0.0637-1.9815 0.16916-1.7547 0.31-2.0733 0.95887-2.0733 2.1555v1.5804h4.1467v0.52679h-5.7029c-1.2051 0-2.2604 0.72436-2.5905 2.1023-0.38073 1.5795-0.39762 2.5651 0 4.2143 0.29476 1.2276 0.99869 2.1023 2.2038 2.1023h1.4257v-1.8945c0-1.3687 1.1842-2.576 2.5905-2.576h4.1418c1.1529 0 2.0733-0.94928 2.0733-2.1072v-3.9485c0-1.1238-0.94803-1.968-2.0733-2.1555-0.71234-0.11858-1.4514-0.17245-2.1603-0.16916zm-2.2425 1.2711c0.42832 0 0.7781 0.35549 0.7781 0.79261 0 0.43555-0.34978 0.78776-0.7781 0.78776-0.42986 0-0.77811-0.35221-0.77811-0.78776 0-0.43712 0.34825-0.79261 0.77811-0.79261zm6.9933 3.1608v1.8414c0 1.4276-1.2103 2.6291-2.5905 2.6291h-4.1418c-1.1345 0-2.0733 0.97099-2.0733 2.1072v3.9485c0 1.1238 0.9772 1.7848 2.0733 2.1072 1.3126 0.38596 2.5713 0.45571 4.1418 0 1.0439-0.30225 2.0733-0.91054 2.0733-2.1072v-1.5804h-4.1418v-0.52679h6.2152c1.2051 0 1.6542-0.84061 2.0733-2.1023 0.43293-1.2989 0.41451-2.548 0-4.2143-0.29783-1.1997-0.86666-2.1023-2.0733-2.1023zm-2.3295 9.9994c0.42986 0 0.77811 0.3522 0.77811 0.78777 0 0.4371-0.34825 0.7926-0.77811 0.7926-0.42832 0-0.7781-0.3555-0.7781-0.7926 0-0.43557 0.34978-0.78777 0.7781-0.78777z"
					filter="url(#filter3202)" opacity=".534" />
				<path
					d="m63.391 275.06c-0.75404 4e-3 -1.4741 0.0678-2.1077 0.17993-1.8665 0.32972-2.2054 1.0199-2.2054 2.2927v1.6809h4.4108v0.56031h-6.0662c-1.2819 0-2.4044 0.77045-2.7555 2.2361-0.40499 1.68-0.42295 2.7283 0 4.4825 0.31354 1.3058 1.0623 2.2361 2.3442 2.2361h1.5166v-2.0151c0-1.4558 1.2597-2.7399 2.7555-2.7399h4.4057c1.2264 0 2.2054-1.0097 2.2054-2.2413v-4.1998c0-1.1953-1.0084-2.0932-2.2054-2.2927-0.75772-0.12613-1.5439-0.18343-2.298-0.17993zm-2.3854 1.352c0.45561 0 0.82768 0.37812 0.82768 0.84305 0 0.46327-0.37207 0.83789-0.82768 0.83789-0.45725 0-0.82768-0.37462-0.82768-0.83789 0-0.46493 0.37043-0.84305 0.82768-0.84305zm7.4388 3.3619v1.9585c0 1.5184-1.2874 2.7964-2.7555 2.7964h-4.4057c-1.2068 0-2.2054 1.0328-2.2054 2.2412v4.1998c0 1.1953 1.0395 1.8983 2.2054 2.2413 1.3962 0.41052 2.7351 0.4847 4.4057 0 1.1104-0.32149 2.2054-0.96848 2.2054-2.2413v-1.6809h-4.4057v-0.56031h6.6111c1.2819 0 1.7596-0.8941 2.2054-2.2361 0.46051-1.3816 0.44091-2.7102 0-4.4825-0.31681-1.2761-0.92188-2.2361-2.2054-2.2361zm-2.4779 10.636c0.45724 0 0.82768 0.37461 0.82768 0.8379 0 0.46491-0.37043 0.84303-0.82768 0.84303-0.45561 0-0.82768-0.37812-0.82768-0.84303 0-0.46329 0.37207-0.8379 0.82768-0.8379z"
					fill="#fff" />
			</g>
			<g transform="matrix(.78992 0 0 .78992 -22.732 27.564)" stroke-linecap="round" stroke-linejoin="round">
				<path transform="matrix(.2893 0 0 .2893 -1.1863 272.79)"
					d="m34.746-80.826a3.75 3.75 0 0 0-3.75 3.75v2.2246c-5.033 0.86372-8.9832 4.8129-9.8477 9.8457h-2.2207a3.75 3.75 0 0 0-3.75 3.75 3.75 3.75 0 0 0 3.75 3.75h2.041v5.7578h-2.041a3.75 3.75 0 0 0-3.75 3.75 3.75 3.75 0 0 0 3.75 3.75h2.041v5.7578h-2.041a3.75 3.75 0 0 0-3.75 3.75 3.75 3.75 0 0 0 3.75 3.75h2.2227c0.86595 5.0308 4.814 8.9783 9.8457 9.8418v2.2207a3.75 3.75 0 0 0 3.75 3.75 3.75 3.75 0 0 0 3.75-3.75v-2.041h5.75v2.041a3.75 3.75 0 0 0 3.75 3.75 3.75 3.75 0 0 0 3.75-3.75v-2.041h5.7598v2.041a3.75 3.75 0 0 0 3.75 3.75 3.75 3.75 0 0 0 3.75-3.75v-2.2207c5.0308-0.86415 8.9779-4.8117 9.8438-9.8418h2.2246a3.75 3.75 0 0 0 3.75-3.75 3.75 3.75 0 0 0-3.75-3.75h-2.043v-5.7578h2.043a3.75 3.75 0 0 0 3.75-3.75 3.75 3.75 0 0 0-3.75-3.75h-2.043v-5.7578h2.043a3.75 3.75 0 0 0 3.75-3.75 3.75 3.75 0 0 0-3.75-3.75h-2.2227c-0.86439-5.0321-4.8136-8.9813-9.8457-9.8457v-2.2246a3.75 3.75 0 0 0-3.75-3.75 3.75 3.75 0 0 0-3.75 3.75v2.0449h-5.7598v-2.0449a3.75 3.75 0 0 0-3.75-3.75 3.75 3.75 0 0 0-3.75 3.75v2.0449h-5.75v-2.0449a3.75 3.75 0 0 0-3.75-3.75zm5.3535 14.48h4.5059l6.9199 36.691h-3.4785l-2.3203-13.951h-6.7461l-2.3184 13.951h-3.4805zm14.906 0.08008h3.2637v36.611h-3.2637zm-12.654 2.8125-3.0859 17.068h6.1777z"
					filter="url(#filter10261)" opacity=".534" stroke-width="26.256" />
				<path
					d="m8.8656 249.4a1.0849 1.0849 0 0 0-1.0849 1.0849v0.64357c-1.456 0.24988-2.5988 1.3924-2.8489 2.8484h-0.64245a1.0849 1.0849 0 0 0-1.0849 1.0849 1.0849 1.0849 0 0 0 1.0849 1.0849h0.59046v1.6657h-0.59046a1.0849 1.0849 0 0 0-1.0849 1.0849 1.0849 1.0849 0 0 0 1.0849 1.0849h0.59046v1.6657h-0.59046a1.0849 1.0849 0 0 0-1.0849 1.0849 1.0849 1.0849 0 0 0 1.0849 1.0849h0.64301c0.25052 1.4554 1.3927 2.5974 2.8483 2.8472v0.64244a1.0849 1.0849 0 0 0 1.0849 1.0849 1.0849 1.0849 0 0 0 1.0849-1.0849v-0.59046h1.6635v0.59046a1.0849 1.0849 0 0 0 1.0849 1.0849 1.0849 1.0849 0 0 0 1.0849-1.0849v-0.59046h1.6663v0.59046a1.0849 1.0849 0 0 0 1.0849 1.0849 1.0849 1.0849 0 0 0 1.0849-1.0849v-0.64244c1.4554-0.25 2.5973-1.392 2.8478-2.8472h0.64358a1.0849 1.0849 0 0 0 1.0849-1.0849 1.0849 1.0849 0 0 0-1.0849-1.0849h-0.59103v-1.6657h0.59103a1.0849 1.0849 0 0 0 1.0849-1.0849 1.0849 1.0849 0 0 0-1.0849-1.0849h-0.59103v-1.6657h0.59103a1.0849 1.0849 0 0 0 1.0849-1.0849 1.0849 1.0849 0 0 0-1.0849-1.0849h-0.64301c-0.25007-1.4558-1.3926-2.5983-2.8483-2.8484v-0.64357a1.0849 1.0849 0 0 0-1.0849-1.0849 1.0849 1.0849 0 0 0-1.0849 1.0849v0.59159h-1.6663v-0.59159a1.0849 1.0849 0 0 0-1.0849-1.0849 1.0849 1.0849 0 0 0-1.0849 1.0849v0.59159h-1.6635v-0.59159a1.0849 1.0849 0 0 0-1.0849-1.0849zm1.5488 4.1892h1.3035l2.0019 10.615h-1.0063l-0.67126-4.036h-1.9516l-0.6707 4.036h-1.0069zm4.3123 0.0232h0.94417v10.592h-0.94417zm-3.6609 0.81365-0.89276 4.9378h1.7872z"
					fill="#fff" stroke-width="7.5957" />
			</g>
			<g transform="matrix(.87124 0 0 .87105 -27.035 9.6143)" stroke-width=".30372">
				<path
					d="m-12.862 274.91c-0.58843-1e-3 -1.1709 0.21263-1.5932 0.64483l-7.0253 7.1887c-2.3736 2.9394 1.6153 2.5974 3.3253 3.4441 0.6134 0.627-2.3509 1.0898-1.7375 1.7173 0.6134 0.62699 3.7089 1.2078 4.3234 1.8348 0.6134 0.62699-1.2556 1.2923-0.64215 1.9193s2.0322 0.0329 2.2978 1.4804c0.1893 1.0344 2.5568 0.44455 3.7146-0.40261 0.6134-0.62751-1.1734-0.56863-0.56002-1.1956 1.5254-1.5599 2.9457-0.56666 3.4676-2.1297 0.2578-0.77237-2.2457-1.1908-1.6313-1.8178 1.7649-1.0307 7.865-1.7015 4.9706-4.596l-7.2818-7.4428c-0.44528-0.4275-1.0396-0.64365-1.628-0.64483zm0.06308 0.68411c0.42011 2e-3 0.83881 0.15941 1.1403 0.4648l2.7793 2.8227c0.26356 0.26931 0.25995 0.79113 0.11248 0.94121l-1.3801-1.104-0.27138 1.6348-1.1531-0.60882-1.8464 1.1668-0.61121-2.4594-0.99209 1.7164h-1.5164c-0.6181 0-0.69077-0.78457-0.12914-1.3462 0.98102-1.0589 2.1068-2.1381 2.7186-2.7635 0.30748-0.31428 0.7291-0.46703 1.1492-0.4648zm-3.3375 10.982c0.18773 0.11661 3.0272 0.69344 3.7211 0.80849 0.24055 0.0507 0.06998 0.29865-0.26156 0.46599-0.74779 0.19872-4.3747-1.2745-3.4595-1.2745zm11.04 1.9762c-0.5713 0.0197-1.1347 0.31154-1.29 0.85878 0 0.35664 2.6278 0.59037 2.6278-0.0842-0.18721-0.54176-0.76657-0.79425-1.3379-0.77457zm-12.156 1.5468c-0.7963 0.0423-1.6507 0.61842-0.97126 1.2069 0.62229 0.5381 1.5833-0.13374 1.8714-0.88467-0.18842-0.25036-0.53819-0.3415-0.90015-0.32227zm10.536 0.0446c-0.80218 0.71956 0.08983 1.4496 0.88051 0.98466 0.17623-0.17885-0.0046-0.80582-0.88051-0.98466z"
					filter="url(#filter10613)" opacity=".534" />
				<path
					d="m-12.862 274.91c-0.58843-1e-3 -1.1709 0.21263-1.5932 0.64483l-7.0253 7.1887c-2.3736 2.9394 1.6153 2.5974 3.3253 3.4441 0.6134 0.627-2.3509 1.0898-1.7375 1.7173 0.6134 0.62699 3.7089 1.2078 4.3234 1.8348 0.6134 0.62699-1.2556 1.2923-0.64215 1.9193s2.0322 0.0329 2.2978 1.4804c0.1893 1.0344 2.5568 0.44455 3.7146-0.40261 0.6134-0.62751-1.1734-0.56863-0.56002-1.1956 1.5254-1.5599 2.9457-0.56666 3.4676-2.1297 0.2578-0.77237-2.2457-1.1908-1.6313-1.8178 1.7649-1.0307 7.865-1.7015 4.9706-4.596l-7.2818-7.4428c-0.44528-0.4275-1.0396-0.64365-1.628-0.64483zm0.06308 0.68411c0.42011 2e-3 0.83881 0.15941 1.1403 0.4648l2.7793 2.8227c0.26356 0.26931 0.25995 0.79113 0.11248 0.94121l-1.3801-1.104-0.27138 1.6348-1.1531-0.60882-1.8464 1.1668-0.61121-2.4594-0.99209 1.7164h-1.5164c-0.6181 0-0.69077-0.78457-0.12914-1.3462 0.98102-1.0589 2.1068-2.1381 2.7186-2.7635 0.30748-0.31428 0.7291-0.46703 1.1492-0.4648zm-3.3375 10.982c0.18773 0.11661 3.0272 0.69344 3.7211 0.80849 0.24055 0.0507 0.06998 0.29865-0.26156 0.46599-0.74779 0.19872-4.3747-1.2745-3.4595-1.2745zm11.04 1.9762c-0.5713 0.0197-1.1347 0.31154-1.29 0.85878 0 0.35664 2.6278 0.59037 2.6278-0.0842-0.18721-0.54176-0.76657-0.79425-1.3379-0.77457zm-12.156 1.5468c-0.7963 0.0423-1.6507 0.61842-0.97126 1.2069 0.62229 0.5381 1.5833-0.13374 1.8714-0.88467-0.18842-0.25036-0.53819-0.3415-0.90015-0.32227zm10.536 0.0446c-0.80218 0.71956 0.089833 1.4496 0.88051 0.98466 0.17623-0.17885-0.00461-0.80582-0.88051-0.98466z"
					fill="#fff" />
			</g>
			<g transform="matrix(.90245 0 0 .90228 -24.172 3.3293)" stroke-linecap="round" stroke-linejoin="round">
				<path transform="matrix(1.1614 0 0 1.1614 -1.4601 -51.242)"
					d="m13.945 303.65a1.8577 1.79 0 0 0-1.8577 1.7896 1.8577 1.79 0 0 0 1.8577 1.7903c1.0026 0 1.8094 0.80678 1.8094 1.8094v3.4922c0 1.0026-0.80677 1.8094-1.8094 1.8094a1.8577 1.79 0 0 0-1.8577 1.7896 1.8577 1.79 0 0 0 1.8577 1.7903h1.7645c2.012 0 3.6317-1.6197 3.6317-3.6316v-7.0074c0-2.012-1.6197-3.6317-3.6317-3.6317z"
					filter="url(#filter13591)" opacity=".534" stroke-width="1.8935" />
				<path
					d="m14.736 301.41a2.1575 2.0789 0 0 0-2.1575 2.0785 2.1575 2.0789 0 0 0 2.1575 2.0793c1.1644 0 2.1014 0.93699 2.1014 2.1014v4.0558c0 1.1644-0.93698 2.1014-2.1014 2.1014a2.1575 2.0789 0 0 0-2.1575 2.0785 2.1575 2.0789 0 0 0 2.1575 2.0792h2.0492c2.3367 0 4.2178-1.8811 4.2178-4.2178v-8.1384c0-2.3367-1.8811-4.2178-4.2178-4.2178z"
					fill="#e7e7e7" stroke-width="2.1991" />
				<path transform="matrix(1.1614 0 0 1.1614 -1.4601 -51.242)"
					d="m8.675 303.65c-2.012 0-3.6317 1.6197-3.6317 3.6316v7.0074c0 2.012 1.6197 3.6317 3.6317 3.6317h5.2702a1.8577 1.79 0 0 1-1.8577-1.7903 1.8577 1.79 0 0 1 1.8577-1.7896h-3.5058c-1.0026 0-1.8094-0.80676-1.8094-1.8094v-3.4922c0-1.0026 0.80677-1.8094 1.8094-1.8094h3.5058a1.8577 1.79 0 0 1-1.8577-1.7903 1.8577 1.79 0 0 1 1.8577-1.7896z"
					filter="url(#filter13591)" opacity=".534" stroke-width="1.8935" />
				<path
					d="m8.615 301.41c-2.3367 0-4.2178 1.8811-4.2178 4.2178v8.1384c0 2.3367 1.8811 4.2178 4.2178 4.2178h6.1208a2.1575 2.0789 0 0 1-2.1575-2.0793 2.1575 2.0789 0 0 1 2.1575-2.0785h-4.0716c-1.1644 0-2.1014-0.93697-2.1014-2.1014v-4.0558c0-1.1644 0.93698-2.1014 2.1014-2.1014h4.0716a2.1575 2.0789 0 0 1-2.1575-2.0793 2.1575 2.0789 0 0 1 2.1575-2.0785z"
					fill="#fff" stroke-width="2.1991" />
			</g>
			<g transform="matrix(.26458 0 0 .26458 -25.4 245.08)" fill="#fff"
				style="shape-inside:url(#rect29192);white-space:pre" aria-label="CustomTkinter">
				<path
					d="m17.3 186.49q-0.07031 0-0.17578-0.0176-1.7988-0.0879-2.7656-1.0898-0.97266-1.0078-0.97266-2.6133t1.0488-2.6074q1.0488-1.0078 2.6895-1.1543 0.16992-0.0234 0.25781-0.0117 0.08789-0.0117 0.45703 0.0234 0.36914 0.0293 0.87891 0.19922 0.45117 0.1289 0.45117 0.62109-0.01172 0.46875-0.45703 0.62109-0.21094 0.10547-0.58008-0.0644-0.32227-0.15234-0.75-0.14648-0.91992 0-1.5586 0.72656-0.63867 0.75-0.64453 1.7754 0 1.0254 0.63867 1.752 0.64453 0.72656 1.5645 0.72656 0.42773 0 0.75586-0.14062 0.32812-0.14063 0.5625-0.0703h0.01758q0.49219 0.15234 0.48633 0.66211-0.0059 0.51562-0.50391 0.63867-0.49219 0.1289-1.0605 0.15234-0.10547 0.0234-0.16992 0.0176 0 0-0.16992 0z" />
				<path
					d="m19.931 183.87t0-2.127q0-0.26953 0.23438-0.50391 0.16406-0.16406 0.58008-0.1582h0.01758q0.41602 0 0.58008 0.1582 0.23438 0.23438 0.23438 0.50391v2.2441q0 0.79101 0.51562 1.0371 0.62109 0.30468 1.1309-6e-3 0.50976-0.30469 0.5332-0.76758v-2.4316q0-0.3457 0.24609-0.58008 0.16992-0.16406 0.5918-0.1582h0.01758q0.41602 0 0.58008 0.1582 0.23438 0.23438 0.23438 0.58008v4.1016q0 0.2168-0.15234 0.375-0.14648 0.1582-0.38086 0.1582h-0.62109q-0.21094 0-0.375-0.16992-0.16406-0.17578-0.1582-0.36328-2.1035 1.2422-3.1875-0.12891-0.62109-0.79101-0.62109-1.9219z" />
				<path
					d="m26.177 185.56q0.05273-0.22266 0.28711-0.36328 0.21094-0.12891 0.56836-0.0117 0.35742 0.11719 0.72656 0.10547 0.70312-0.0117 0.70312-0.43946 0-0.19335-0.15234-0.3164-0.15234-0.12305-0.61523-0.28711-1.5234-0.52734-1.5117-1.5938 0.01172-0.76758 0.59766-1.248 0.58008-0.48047 1.5527-0.48047 0.45703-6e-3 0.94336 0.12891 0.2168 0.0586 0.3457 0.25781 0.12305 0.19922 0.05859 0.42774v6e-3q-0.04102 0.22265-0.25781 0.35742-0.2168 0.1289-0.49219 0.0527-0.28125-0.0762-0.54492-0.0879-0.62695-0.0117-0.62695 0.41602 0 0.17578 0.18164 0.3164 0.18164 0.13477 0.67383 0.30469 1.4121 0.49805 1.418 1.6172 0.01172 0.76758-0.56836 1.248-0.58008 0.4746-1.7051 0.4746-0.5918 0-1.1777-0.1582-0.20508-0.0527-0.33984-0.28125-0.12891-0.21094-0.06445-0.42773z" />
				<path
					d="m32.798 183.89q0 0.89648 0.49219 1.1543 0.38086 0.21094 0.18164 0.79102-0.19922 0.59766-0.63281 0.59766-0.70312 0-1.1309-0.83204-0.36328-0.71484-0.36328-1.8164v-1.4356h-0.21094q-0.24023 0-0.39844-0.15234-0.16406-0.14649-0.1582-0.39258v-0.0117q0-0.22851 0.1582-0.39258 0.1582-0.16406 0.39844-0.16406h0.21094v-0.59766q0-0.41015 0.32226-0.65039 0.17578-0.14062 0.49805-0.14062h0.02344q0.19922 0 0.4043 0.25781 0.20508 0.25781 0.20508 0.5332v0.59766h0.49219q0.2168 0 0.38086 0.16992 0.16406 0.16992 0.16406 0.38672v0.0117q0 0.25195-0.1582 0.39844-0.1582 0.14648-0.38672 0.14648h-0.49219z" />
				<path
					d="m37.187 185.5q0.48047 0 0.86719-0.43946 0.31055-0.35742 0.31055-1.7461-0.0059-0.69727-0.32812-1.0547-0.32812-0.35742-0.84961-0.35742-0.45117 0-0.78516 0.375-0.39844 0.44531-0.39844 1.0371 0.0059 1.3125 0.39844 1.7461 0.39258 0.4336 0.78516 0.43946zm1.998-3.7793q0.82617 0.82031 0.82617 1.9805 0 1.1602-0.83789 1.9863-0.83203 0.82031-1.8281 0.81445-0.08203 6e-3 -0.1582 0-1.125 0.0469-1.9746-0.79688-0.84375-0.84375-0.84375-2.0098 0.0059-1.1719 0.82031-1.9863 0.82031-0.81445 1.834-0.80859 0.07617-6e-3 0.1582-6e-3 1.1777 0 2.0039 0.82617z" />
				<path
					d="m49.274 183.63t0 2.1035q0 0.30469-0.1875 0.50391-0.1875 0.19336-0.58008 0.19336h-0.01172q-0.76758 0-0.76758-0.69727v-2.7949q0-0.38672-0.29297-0.66797-0.28711-0.27539-0.67383-0.26367-0.38672 0.0117-0.63867 0.29297-0.25781 0.28711-0.25781 0.66797v2.7656q0 0.30469-0.18164 0.50391-0.18164 0.19922-0.58594 0.19336h-0.15234q-0.39258 0-0.58008-0.19922t-0.1875-0.49805v-2.7949q0-0.38672-0.28125-0.66797t-0.67383-0.26367q-0.39844 0.0117-0.64453 0.30469-0.24609 0.29882-0.25195 0.65625v2.7656q0 0.31055-0.19336 0.50391t-0.58594 0.19336h-0.11133q-0.39258 0-0.58008-0.1875t-0.1875-0.50977v-4.1426q0-0.23437 0.14648-0.38672 0.14648-0.14648 0.38672-0.15234h0.62109q0.21094 0 0.36914 0.1582 0.1582 0.15235 0.1582 0.38086 0.06445-0.041 0.16992-0.15234 0.36328-0.38672 0.7793-0.49219 1.3652-0.3457 2.1152 0.89649h0.03516q0.82031-0.8086 1.248-0.89649 1.2246-0.24023 1.9043 0.5918 0.67383 0.83203 0.67383 2.0918z" />
				<path
					d="m50.153 179.95t0-0.0234q-0.08203-0.36328 0.09961-0.59766 0.18164-0.23437 0.47461-0.23437h4.4941q0.29883 0 0.48633 0.24609 0.1875 0.2461 0.08789 0.58594v0.0234q-0.04687 0.19336-0.22266 0.32812-0.18164 0.13477-0.35156 0.11719l-1.3477-0.10547v5.3203q0 0.38086-0.25781 0.64454-0.25781 0.25781-0.64453 0.25781h-0.0059q-0.375 0-0.63281-0.25781-0.25781-0.25782-0.25781-0.64454v-5.3203l-1.3477 0.10547q-0.19922 0.0176-0.36914-0.13477-0.16992-0.14648-0.20508-0.31054z" />
				<path
					d="m59.511 183.58 1.3711 1.6289q0.28125 0.375 0.05273 0.78515-0.22851 0.41016-0.66796 0.41016h-0.02344q-0.42773 0-0.63281-0.36328l-1.2012-1.7871-0.23438 0.21094v1.0664q0 0.36328-0.25781 0.6211-0.25781 0.25781-0.53906 0.25195h-0.0059q-0.36328 0-0.62695-0.25195-0.25781-0.25782-0.25195-0.6211v-5.5371q0-0.35742 0.25781-0.61523 0.25781-0.25781 0.62109-0.25195h0.0059q0.28125 0 0.53906 0.25195 0.25781 0.25781 0.25781 0.61523v2.6367q0 0.0996 0.11133 0.0586t0.16406-0.10547l1.2773-1.4121q0.19922-0.22266 0.50391-0.22266h0.01172q0.42773 0 0.62109 0.41016 0.19336 0.41601-0.03516 0.6914z" />
				<path
					d="m62.61 186.44q-0.36328 0-0.62109-0.25196-0.25195-0.25781-0.25195-0.62109v-3.457q0-0.36328 0.25781-0.6211 0.26367-0.25781 0.61524-0.25781h0.01172q0.35156 0 0.60938 0.25781 0.25781 0.25782 0.25781 0.6211v3.457q0 0.36328-0.25781 0.62109-0.25781 0.25782-0.60938 0.25196zm0.80859-6.5977q0 0.38086-0.26953 0.64453-0.26367 0.26367-0.63281 0.26367-0.375 0-0.63281-0.26367-0.25781-0.26367-0.26367-0.64453 0-0.38086 0.26367-0.63867 0.25781-0.26367 0.63281-0.25781 0.36328 0 0.63281 0.25195 0.26953 0.25781 0.26953 0.64453z" />
				<path
					d="m69.724 183.67t0.01172 2.1211q0 0.33399-0.24609 0.58008-0.16992 0.16407-0.5918 0.15821h-0.0059q-0.41602 0-0.58008-0.15821-0.24609-0.23437-0.24609-0.58008v-2.2207q0-0.83789-0.50977-1.0898-0.51562-0.25196-1.1074 0.10547-0.5918 0.35742-0.5625 0.71484v2.4902q0 0.34571-0.23438 0.58008-0.16406 0.16407-0.58008 0.15821 0 0-0.0293 0-0.41602 0-0.58008-0.15821-0.24609-0.24609-0.24609-0.58008v-4.166q0-0.22852 0.16992-0.38672t0.375-0.1582h0.60938q0.22852 0 0.38086 0.16992 0.15234 0.16406 0.15234 0.36328v0.0117q0.84375-0.49805 1.2539-0.56836 1.4062-0.24023 2.1562 0.72656 0.4043 0.53321 0.41016 1.8867z" />
				<path
					d="m72.536 183.89q0 0.89648 0.49219 1.1543 0.38086 0.21094 0.18164 0.79102-0.19922 0.59766-0.63281 0.59766-0.70312 0-1.1309-0.83204-0.36328-0.71484-0.36328-1.8164v-1.4356h-0.21094q-0.24023 0-0.39844-0.15234-0.16406-0.14649-0.1582-0.39258v-0.0117q0-0.22851 0.1582-0.39258 0.1582-0.16406 0.39844-0.16406h0.21094v-0.59766q0-0.41015 0.32226-0.65039 0.17578-0.14062 0.49805-0.14062h0.02344q0.19922 0 0.4043 0.25781t0.20508 0.5332v0.59766h0.49219q0.2168 0 0.38086 0.16992 0.16406 0.16992 0.16406 0.38672v0.0117q0 0.25195-0.1582 0.39844-0.1582 0.14648-0.38672 0.14648h-0.49219z" />
				<path
					d="m76.802 182.08q-0.41602 0-0.82031 0.35742-0.25781 0.22852-0.35742 0.74414h2.5664q-0.19336-0.67968-0.57422-0.89062t-0.81445-0.21094zm2.5957 1.6523v6e-3q0 0.49219-0.46875 0.49219h-3.2637q0.16992 0.5332 0.3457 0.70313 0.65039 0.59765 1.7344 0.11132l0.60352-0.26953q0.39258-0.17578 0.60352 0.12305 0.21094 0.29883 0.14062 0.61523l-0.01172 6e-3q-0.05859 0.26368-0.53906 0.52735-0.69726 0.38672-1.9219 0.375-0.87891 0-1.6992-0.78516-0.81445-0.78516-0.81445-1.9043 0-1.125 0.78516-1.9219 0.79102-0.79102 1.8633-0.77344 1.0723 0.0176 1.8574 0.76758 0.78516 0.75 0.78516 1.9277z" />
				<path
					d="m81.97 181.27q0.33984-0.24024 1.2363-0.24024 0.16406 0 0.25195 0.11719 0.08789 0.11719 0.05859 0.25781l-0.11719 0.54492q-0.08203 0.52149-0.4043 0.47461-0.53906-0.0879-0.96094 0.21094-0.42188 0.29883-0.42774 0.68555v0.0117h-0.01172v2.2676q0 0.32813-0.24024 0.57422-0.24023 0.2461-0.58594 0.2461h-0.01758q-0.33984 0-0.58008-0.23438-0.23438-0.24023-0.23438-0.58594v-3.7207q0-0.33984 0.24609-0.58594 0.24609-0.24023 0.58008-0.24023h0.0293q0.42774 0 0.82617 0.60937 0.18164-0.27539 0.35156-0.39257z" />
			</g>
			<g transform="matrix(.26458 0 0 .26458 1e-6 219.51)" fill="#fff"
				style="shape-inside:url(#rect44022);white-space:pre" aria-label="Blender">
				<path
					d="m32.769 183.08h-0.36914q-0.09375 0-0.16992 0.0645-0.07617 0.0644-0.07617 0.16406v1.8281q0 0.0879 0.07031 0.14649 0.07031 0.0645 0.18164 0.0645 0.11133 0 0.59766 6e-3 0.48047 6e-3 0.91406-0.22265 0.43359-0.22852 0.43359-0.91407 0-0.68554-0.43945-0.9082-0.43945-0.22852-1.1426-0.22852zm-0.61524-2.625v1.5293q0 0.0879 0.06445 0.14649 0.06445 0.0586 0.17578 0.0644h0.31055q0.65039 0 0.99023-0.21094 0.33984-0.2168 0.33398-0.75-0.01758-1.002-1.166-1.0078-0.28125 0-0.49219 0.0117-0.2168 0.0117-0.2168 0.21679zm2.7188 2.0274q0 0.14648 0.07617 0.16992 1.2539 0.38086 1.248 1.6641 0 0.90821-0.80273 1.5-0.80274 0.5918-3.0645 0.59766-0.05859 0-1.1133 0.041-0.31055 0.0117-0.55664-0.19921-0.24609-0.2168-0.24609-0.55079v-5.8535q0-0.31641 0.22852-0.52735 0.22852-0.21093 0.5332-0.21093 0.62109 0.0176 1.5176 0.0293 1.5996 0.0176 2.3203 0.39844 0.93164 0.45117 0.93164 1.4121t-1.0078 1.418q-0.06445 0.0352-0.06445 0.11133z" />
				<path
					d="m38.347 185.56q0 0.36914-0.25195 0.62109-0.25195 0.25196-0.62695 0.25196h-0.01758q-0.35156 0-0.60938-0.25196-0.25781-0.25781-0.25781-0.62109v-5.6016q0-0.36328 0.25195-0.61524 0.24609-0.25195 0.61523-0.25195h0.01758q0.36914 0 0.62695 0.25195 0.25781 0.25196 0.25195 0.61524z" />
				<path
					d="m41.64 182.08q-0.41602 0-0.82031 0.35742-0.25781 0.22852-0.35742 0.74414h2.5664q-0.19336-0.67968-0.57422-0.89062-0.38086-0.21094-0.81445-0.21094zm2.5957 1.6523v6e-3q0 0.49219-0.46875 0.49219h-3.2637q0.16992 0.5332 0.3457 0.70313 0.65039 0.59765 1.7344 0.11132l0.60352-0.26953q0.39258-0.17578 0.60352 0.12305 0.21094 0.29883 0.14062 0.61523l-0.01172 6e-3q-0.05859 0.26368-0.53906 0.52735-0.69727 0.38672-1.9219 0.375-0.87891 0-1.6992-0.78516-0.81445-0.78516-0.81445-1.9043 0-1.125 0.78516-1.9219 0.79102-0.79102 1.8633-0.77344 1.0723 0.0176 1.8574 0.76758 0.78516 0.75 0.78516 1.9277z" />
				<path
					d="m50.282 183.67t0.01172 2.1211q0 0.33399-0.24609 0.58008-0.16992 0.16407-0.5918 0.15821h-0.0059q-0.41602 0-0.58008-0.15821-0.24609-0.23437-0.24609-0.58008v-2.2207q0-0.83789-0.50976-1.0898-0.51562-0.25196-1.1074 0.10547-0.5918 0.35742-0.5625 0.71484v2.4902q0 0.34571-0.23438 0.58008-0.16406 0.16407-0.58008 0.15821 0 0-0.0293 0-0.41602 0-0.58008-0.15821-0.24609-0.24609-0.24609-0.58008v-4.166q0-0.22852 0.16992-0.38672t0.375-0.1582h0.60938q0.22852 0 0.38086 0.16992 0.15234 0.16406 0.15234 0.36328v0.0117q0.84375-0.49805 1.2539-0.56836 1.4062-0.24023 2.1562 0.72656 0.4043 0.53321 0.41016 1.8867z" />
				<path
					d="m52.626 183.31t0 0.70312q0 0.60938 0.31641 1.0371 0.32226 0.42774 0.79688 0.41602 0.25781 0.0293 0.5332-0.0527 0.55664-0.19336 0.56836-0.84375 0 0 0-1.9805-0.11719-0.33399-0.62109-0.52149-0.50391-0.19336-1.0371 0.0645-0.25781 0.11718-0.41016 0.44531-0.14648 0.33398-0.14648 0.73242zm0.96094-2.2793q0.66211 0 1.2539 0.33985v-1.7637q-0.0059-0.33984 0.24024-0.58593 0.24609-0.2461 0.5918-0.2461h0.02344q0.33984 0 0.58594 0.2461 0.24609 0.24609 0.24609 0.58593v6.4922q0.01172 0.12891-0.09961 0.23438-0.10547 0.10547-0.24609 0.10547h-1.002q-0.15234 0-0.25195-0.10547-0.09961-0.10547-0.08789-0.23438-0.58594 0.33985-1.2539 0.33985-1.0664 0-1.8164-0.79102t-0.75-1.9102q0-1.125 0.75-1.916 0.75-0.79102 1.8164-0.79102z" />
				<path
					d="m59.81 182.08q-0.41602 0-0.82031 0.35742-0.25781 0.22852-0.35742 0.74414h2.5664q-0.19336-0.67968-0.57422-0.89062-0.38086-0.21094-0.81445-0.21094zm2.5957 1.6523v6e-3q0 0.49219-0.46875 0.49219h-3.2637q0.16992 0.5332 0.3457 0.70313 0.65039 0.59765 1.7344 0.11132l0.60352-0.26953q0.39258-0.17578 0.60352 0.12305 0.21094 0.29883 0.14062 0.61523l-0.01172 6e-3q-0.05859 0.26368-0.53906 0.52735-0.69727 0.38672-1.9219 0.375-0.87891 0-1.6992-0.78516-0.81445-0.78516-0.81445-1.9043 0-1.125 0.78516-1.9219 0.79102-0.79102 1.8633-0.77344 1.0723 0.0176 1.8574 0.76758 0.78516 0.75 0.78516 1.9277z" />
				<path
					d="m64.978 181.27q0.33984-0.24024 1.2363-0.24024 0.16406 0 0.25195 0.11719t0.05859 0.25781l-0.11719 0.54492q-0.08203 0.52149-0.4043 0.47461-0.53906-0.0879-0.96094 0.21094-0.42188 0.29883-0.42773 0.68555v0.0117h-0.01172v2.2676q0 0.32813-0.24023 0.57422-0.24024 0.2461-0.58594 0.2461h-0.01758q-0.33984 0-0.58008-0.23438-0.23438-0.24023-0.23438-0.58594v-3.7207q0-0.33984 0.24609-0.58594 0.24609-0.24023 0.58008-0.24023h0.0293q0.42773 0 0.82617 0.60937 0.18164-0.27539 0.35156-0.39257z" />
			</g>
			<g transform="matrix(.26458 0 0 .26458 25.4 219.64)" fill="#fff"
				style="shape-inside:url(#rect45564);white-space:pre" aria-label="Python">
				<path
					d="m33.68 179.78v3.252h0.84375q0.43945 0 0.76758-0.35156 0.33398-0.35157 0.33398-1.2715 0-0.91406-0.33398-1.2715-0.33398-0.35742-0.76758-0.35742zm1.3535 4.0664-1.3535 0.0176v1.7227q0 0.36328-0.25781 0.61523-0.25781 0.25195-0.59766 0.24023h-0.02344q-0.36328 0.0117-0.59766-0.24609-0.25781-0.23437-0.25781-0.60937v-5.6133q0-0.33984 0.25781-0.59765 0.25781-0.25781 0.62109-0.25781h2.0215q0.21094 0 0.36914 0.0293 0.85547 0.12891 1.4297 0.79688t0.57422 1.4648q0 0.79102-0.45117 1.4941-0.60352 0.93164-1.7344 0.94336z" />
				<path
					d="m41.736 180.96t0.01172 0q0.375 0 0.62109 0.31055 0.24023 0.3164 0.10547 0.6914-0.06445 0.17578-1.6699 4.9922-0.29883 0.89649-1.0254 1.3945-0.72656 0.50391-1.6875 0.30469-0.11133-0.0293-0.28125-0.0937-0.38672-0.14648-0.38672-0.58008v-0.0117q0-0.11718 0.19336-0.43945 0.12891-0.19336 0.39258-0.19336 0.26953 0 0.48633-0.10547 0.5039-0.24616 0.5039-1.1544v-0.0176q-0.33984-1.6641-1.3945-4.0371-0.16992-0.375 0.05273-0.72071 0.22266-0.33984 0.63281-0.33984h0.14062q0.11719 0 0.43945 0.14063 0.20508 0.10546 0.27539 0.375l0.95508 3.3808q0.50391-1.043 0.89648-3.3633 0.03516-0.19922 0.24609-0.36914 0.21094-0.16406 0.49219-0.16406z" />
				<path
					d="m45.322 183.89q0 0.89648 0.49219 1.1543 0.38086 0.21094 0.18164 0.79102-0.19922 0.59766-0.63281 0.59766-0.70312 0-1.1309-0.83204-0.36328-0.71484-0.36328-1.8164v-1.4356h-0.21094q-0.24023 0-0.39844-0.15234-0.16406-0.14649-0.1582-0.39258v-0.0117q0-0.22851 0.1582-0.39258 0.1582-0.16406 0.39844-0.16406h0.21094v-0.59766q0-0.41015 0.32226-0.65039 0.17578-0.14062 0.49805-0.14062h0.02344q0.19922 0 0.4043 0.25781 0.20508 0.25781 0.20508 0.5332v0.59766h0.49219q0.2168 0 0.38086 0.16992 0.16406 0.16992 0.16406 0.38672v0.0117q0 0.25195-0.1582 0.39844-0.1582 0.14648-0.38672 0.14648h-0.49219z" />
				<path
					d="m52.535 183.76t0.01172 1.9043q0 0.33984-0.24609 0.58008-0.23438 0.23437-0.58008 0.23437h-0.01758q-0.33984 0-0.58008-0.23437-0.23438-0.23438-0.23438-0.58008v-2.2324q0-0.89649-0.52148-1.1543-0.52148-0.25195-1.0898 0.0996-0.57422 0.3457-0.56836 0.78516v2.4902q0 0.35156-0.24609 0.5918-0.24609 0.23437-0.5918 0.23437h-0.0059q-0.35156 0-0.5918-0.23437-0.23438-0.23438-0.23438-0.5918v-6.0059q0-0.33984 0.23438-0.5918 0.25781-0.23437 0.59766-0.23437h0.01172q0.33984 0 0.5918 0.23437 0.23438 0.23438 0.23438 0.58008l0.01758 2.0742q0.65625-0.58008 1.2422-0.64453 1.3301-0.14063 1.9512 0.65039 0.61523 0.79102 0.61523 2.0449z" />
				<path
					d="m55.939 185.5q0.48047 0 0.86719-0.43946 0.31055-0.35742 0.31055-1.7461-0.0059-0.69727-0.32812-1.0547-0.32812-0.35742-0.84961-0.35742-0.45117 0-0.78516 0.375-0.39844 0.44531-0.39844 1.0371 0.0059 1.3125 0.39844 1.7461 0.39258 0.4336 0.78516 0.43946zm1.998-3.7793q0.82617 0.82031 0.82617 1.9805 0 1.1602-0.83789 1.9863-0.83203 0.82031-1.8281 0.81445-0.08203 6e-3 -0.1582 0-1.125 0.0469-1.9746-0.79688-0.84375-0.84375-0.84375-2.0098 0.0059-1.1719 0.82031-1.9863 0.82031-0.81445 1.834-0.80859 0.07617-6e-3 0.1582-6e-3 1.1777 0 2.0039 0.82617z" />
				<path
					d="m64.928 183.67t0.01172 2.1211q0 0.33399-0.24609 0.58008-0.16992 0.16407-0.5918 0.15821h-0.0059q-0.41602 0-0.58008-0.15821-0.24609-0.23437-0.24609-0.58008v-2.2207q0-0.83789-0.50976-1.0898-0.51562-0.25196-1.1074 0.10547-0.5918 0.35742-0.5625 0.71484v2.4902q0 0.34571-0.23438 0.58008-0.16406 0.16407-0.58008 0.15821 0 0-0.0293 0-0.41602 0-0.58008-0.15821-0.24609-0.24609-0.24609-0.58008v-4.166q0-0.22852 0.16992-0.38672t0.375-0.1582h0.60938q0.22852 0 0.38086 0.16992 0.15234 0.16406 0.15234 0.36328v0.0117q0.84375-0.49805 1.2539-0.56836 1.4062-0.24023 2.1562 0.72656 0.4043 0.53321 0.41016 1.8867z" />
			</g>
			<g transform="matrix(.26458 0 0 .26458 -50.8 219.64)" fill="#fff"
				style="shape-inside:url(#rect46536);white-space:pre" aria-label="Inkscape">
				<path
					d="m29.78 185.59q0 0.35742-0.25195 0.61523t-0.61523 0.25781h-0.01758q-0.36328 0-0.62109-0.25195-0.25781-0.25781-0.25781-0.62109v-5.7363q0-0.36328 0.25781-0.6211 0.25781-0.25781 0.62109-0.25781h0.01758q0.35156 0 0.60938 0.25195 0.25781 0.25196 0.25781 0.62696z" />
				<path
					d="m36.015 183.67t0.01172 2.1211q0 0.33399-0.24609 0.58008-0.16992 0.16407-0.5918 0.15821h-0.0059q-0.41602 0-0.58008-0.15821-0.24609-0.23437-0.24609-0.58008v-2.2207q0-0.83789-0.50976-1.0898-0.51562-0.25196-1.1074 0.10547-0.5918 0.35742-0.5625 0.71484v2.4902q0 0.34571-0.23438 0.58008-0.16406 0.16407-0.58008 0.15821 0 0-0.0293 0-0.41602 0-0.58008-0.15821-0.24609-0.24609-0.24609-0.58008v-4.166q0-0.22852 0.16992-0.38672t0.375-0.1582h0.60938q0.22852 0 0.38086 0.16992 0.15234 0.16406 0.15234 0.36328v0.0117q0.84375-0.49805 1.2539-0.56836 1.4062-0.24023 2.1562 0.72656 0.4043 0.53321 0.41016 1.8867z" />
				<path
					d="m39.771 183.58 1.3711 1.6289q0.28125 0.375 0.05273 0.78515-0.22851 0.41016-0.66796 0.41016h-0.02344q-0.42774 0-0.63281-0.36328l-1.2012-1.7871-0.23438 0.21094v1.0664q0 0.36328-0.25781 0.6211-0.25781 0.25781-0.53906 0.25195h-0.0059q-0.36328 0-0.62695-0.25195-0.25781-0.25782-0.25195-0.6211v-5.5371q0-0.35742 0.25781-0.61523 0.25781-0.25781 0.62109-0.25195h0.0059q0.28125 0 0.53906 0.25195 0.25781 0.25781 0.25781 0.61523v2.6367q0 0.0996 0.11133 0.0586 0.11133-0.041 0.16406-0.10547l1.2773-1.4121q0.19922-0.22266 0.50391-0.22266h0.01172q0.42773 0 0.62109 0.41016 0.19336 0.41601-0.03516 0.6914z" />
				<path
					d="m42.05 185.56q0.05273-0.22266 0.28711-0.36328 0.21094-0.12891 0.56836-0.0117 0.35742 0.11719 0.72656 0.10547 0.70312-0.0117 0.70312-0.43946 0-0.19335-0.15234-0.3164t-0.61523-0.28711q-1.5234-0.52734-1.5117-1.5938 0.01172-0.76758 0.59766-1.248 0.58008-0.48047 1.5527-0.48047 0.45703-6e-3 0.94336 0.12891 0.2168 0.0586 0.3457 0.25781 0.12305 0.19922 0.05859 0.42774v6e-3q-0.04102 0.22265-0.25781 0.35742-0.2168 0.1289-0.49219 0.0527-0.28125-0.0762-0.54492-0.0879-0.62695-0.0117-0.62695 0.41602 0 0.17578 0.18164 0.3164 0.18164 0.13477 0.67383 0.30469 1.4121 0.49805 1.418 1.6172 0.01172 0.76758-0.56836 1.248-0.58008 0.4746-1.7051 0.4746-0.5918 0-1.1777-0.1582-0.20508-0.0527-0.33984-0.28125-0.12891-0.21094-0.06445-0.42773z" />
				<path
					d="m50.81 185.77t0 0.0234q0 0.20508-0.10547 0.36329-0.24024 0.32226-1.1543 0.32226-1.2188 0-2.0859-0.79101-0.86719-0.79102-0.86719-1.9102t0.86719-1.9102q0.86719-0.79101 2.0859-0.79101 0.42773 0.0117 0.83203 0.11718 0.42773 0.14063 0.42773 0.58008v0.041q0 0.29883-0.21094 0.46875-0.23438 0.16992-0.66797 0.0879-0.43359-0.0879-0.98438 0.12891-0.31055 0.11718-0.49219 0.44531-0.1875 0.33398-0.1875 0.72656v0.0644q0 0.59766 0.4043 1.0312 0.4043 0.42774 0.94922 0.42774 0.22266 0.0234 0.49219-0.0234 0.26953-0.0352 0.48633 0.15234 0.21094 0.17579 0.21094 0.44532z" />
				<path
					d="m53.065 183.62t0 0.38671q0 0.60938 0.32226 1.0371 0.32227 0.42774 0.7793 0.41602 0.26953 0.0293 0.54492-0.0527 0.55664-0.19336 0.55664-0.84375 0 0 0-1.9805-0.10547-0.33399-0.60938-0.52149-0.50391-0.19336-1.0488 0.0645-0.54492 0.25195-0.54492 1.4941zm-0.85547 2.0215q-0.75-0.79102-0.75-1.9102 0-1.125 0.75-1.916 0.75-0.79102 1.8164-0.79102 0.89648 0 1.2422 0.79102 0-0.25781 0.19336-0.45117 0.16992-0.16993 0.42773-0.16993h0.45117q0.25781 0 0.43945 0.16993 0.18164 0.19336 0.18164 0.45117v4.2773q0 0.15235-0.10547 0.2461-0.09961 0.0937-0.24023 0.0937h-0.70312q-0.15234 0-0.35156-0.21094-0.19922-0.21094-0.35742-0.23438-0.1582-0.0234-0.29883 0.0703-0.58008 0.375-0.87891 0.375-1.0664 0-1.8164-0.79102z" />
				<path
					d="m61.579 184.13t0-0.70312q0-0.59766-0.32227-1.0254-0.31641-0.4336-0.7793-0.4336-0.26953-0.041-0.54492 0.0586-0.55664 0.18164-0.55664 0.84375 0 0 0 1.9863 0.10547 0.33985 0.60938 0.52735 0.50391 0.18164 1.0371-0.0762 0.25781-0.10547 0.41016-0.43946 0.14648-0.33398 0.14648-0.73828zm-0.96094 2.291q-0.66797 0-1.2422-0.34571v1.8281q0 0.33984-0.25195 0.59766-0.24023 0.24023-0.58008 0.23437h-0.02344q-0.36914 0-0.59766-0.23437-0.23438-0.23438-0.23438-0.59766v-6.5508q0-0.13477 0.09375-0.24024 0.09375-0.10546 0.24609-0.10546h1.0078q0.14648 0 0.24609 0.11132 0.09961 0.11133 0.09375 0.23438 0.57422-0.3457 1.2422-0.3457 1.0723 0 1.8164 0.79101 0.74414 0.79102 0.75 1.916 0 1.125-0.75 1.916-0.74414 0.79102-1.8164 0.79102z" />
				<path
					d="m66.46 182.08q-0.41602 0-0.82031 0.35742-0.25781 0.22852-0.35742 0.74414h2.5664q-0.19336-0.67968-0.57422-0.89062t-0.81445-0.21094zm2.5957 1.6523v6e-3q0 0.49219-0.46875 0.49219h-3.2637q0.16992 0.5332 0.3457 0.70313 0.65039 0.59765 1.7344 0.11132l0.60352-0.26953q0.39258-0.17578 0.60352 0.12305 0.21094 0.29883 0.14062 0.61523l-0.01172 6e-3q-0.05859 0.26368-0.53906 0.52735-0.69726 0.38672-1.9219 0.375-0.87891 0-1.6992-0.78516-0.81445-0.78516-0.81445-1.9043 0-1.125 0.78516-1.9219 0.79102-0.79102 1.8633-0.77344 1.0723 0.0176 1.8574 0.76758 0.78516 0.75 0.78516 1.9277z" />
			</g>
			<g transform="matrix(.26458 0 0 .26458 -25.4 194.17)" fill="#fff"
				style="shape-inside:url(#rect49632);white-space:pre" aria-label="Artificial Intelligence">
				<path
					d="m12.18 181.57h1.4811l-0.73828-2.0462zm1.791-2.4883t1.4538 4.0286q0.11849 0.32812-0.08659 0.61068-0.20508 0.28711-0.54688 0.28711h-0.10026q-0.21875 0-0.4056-0.13672-0.18685-0.13216-0.22331-0.33268l-0.23698-1.1302h-1.7272l-0.21875 1.1165q-0.04102 0.21875-0.23242 0.35091-0.19596 0.13217-0.45573 0.13217h-0.10026q-0.3418 0-0.54232-0.28711-0.20052-0.28256-0.09115-0.61068l1.3809-4.0104q0.11849-0.34635 0.41016-0.55143t0.59245-0.20508h0.1276q0.29622 0 0.58789 0.20508 0.29622 0.20508 0.41471 0.53321z" />
				<path
					d="m17.776 180.01q0.26432-0.18685 0.96159-0.18685 0.1276 0 0.19596 0.0911 0.06836 0.0911 0.04557 0.20052l-0.09114 0.42383q-0.0638 0.4056-0.31445 0.36914-0.41927-0.0684-0.7474 0.16406-0.32812 0.23243-0.33268 0.53321v9e-3h-0.0091v1.7637q0 0.25521-0.18685 0.44662-0.18685 0.1914-0.45573 0.1914h-0.01367q-0.26432 0-0.45117-0.18229-0.18229-0.18685-0.18229-0.45573v-2.8939q0-0.26432 0.19141-0.45573 0.19141-0.18684 0.45117-0.18684h0.02279q0.33268 0 0.64258 0.47395 0.14128-0.21419 0.27344-0.30533z" />
				<path
					d="m21.117 182.05q0 0.69727 0.38281 0.89779 0.29622 0.16406 0.14128 0.61523-0.15495 0.46485-0.49219 0.46485-0.54688 0-0.87956-0.64714-0.28255-0.55599-0.28255-1.4128v-1.1165h-0.16406q-0.18685 0-0.3099-0.11849-0.1276-0.11394-0.12305-0.30534v-9e-3q0-0.17773 0.12305-0.30533 0.12305-0.12761 0.3099-0.12761h0.16406v-0.46484q0-0.31901 0.25065-0.50586 0.13672-0.10938 0.38737-0.10938h0.01823q0.15495 0 0.31445 0.20052 0.15951 0.20053 0.15951 0.41472v0.46484h0.38281q0.16862 0 0.29622 0.13216t0.1276 0.30078v9e-3q0 0.19596-0.12305 0.30989-0.12305 0.11394-0.30078 0.11394h-0.38281z" />
				<path
					d="m23.108 184.03q-0.28255 0-0.48307-0.19597-0.19596-0.20052-0.19596-0.48307v-2.6888q0-0.28255 0.20052-0.48307 0.20508-0.20052 0.47852-0.20052h0.0091q0.27344 0 0.47396 0.20052t0.20052 0.48307v2.6888q0 0.28255-0.20052 0.48307-0.20052 0.20053-0.47396 0.19597zm0.62891-5.1315q0 0.29622-0.20964 0.5013-0.20508 0.20508-0.49219 0.20508-0.29167 0-0.49219-0.20508t-0.20508-0.5013q0-0.29622 0.20508-0.49675 0.20052-0.20507 0.49219-0.20052 0.28255 0 0.49219 0.19597 0.20964 0.20052 0.20964 0.5013z" />
				<path
					d="m27.328 178.73t0 0.0137q-0.08659 0.36914-0.38281 0.38281-0.7793 0.0365-0.78385 0.74739v0.3737h0.36003q0.18685 0 0.32357 0.14128 0.13672 0.13672 0.14128 0.32812v9e-3q0 0.20052-0.13216 0.33268-0.13216 0.13672-0.33268 0.13216h-0.36003v2.2513q0 0.2461-0.17318 0.42383-0.17773 0.17773-0.42383 0.17318h-0.01823q-0.25065 0-0.42383-0.16862t-0.17318-0.42839v-2.2513h-0.1276q-0.19596 0-0.32812-0.14128-0.13672-0.13216-0.13672-0.32356v-9e-3q0-0.18229 0.14128-0.32812 0.14128-0.13672 0.32357-0.14128h0.1276v-0.60612q0-0.48307 0.41471-0.96159 0.51042-0.58333 1.4447-0.60156 0.22331-5e-3 0.40104 0.19141 0.17773 0.20052 0.11849 0.46028z" />
				<path
					d="m28.568 184.03q-0.28255 0-0.48307-0.19597-0.19596-0.20052-0.19596-0.48307v-2.6888q0-0.28255 0.20052-0.48307 0.20508-0.20052 0.47852-0.20052h0.0091q0.27344 0 0.47396 0.20052 0.20052 0.20052 0.20052 0.48307v2.6888q0 0.28255-0.20052 0.48307-0.20052 0.20053-0.47396 0.19597zm0.62891-5.1315q0 0.29622-0.20964 0.5013-0.20508 0.20508-0.49219 0.20508-0.29167 0-0.49219-0.20508t-0.20508-0.5013q0-0.29622 0.20508-0.49675 0.20052-0.20507 0.49219-0.20052 0.28255 0 0.49219 0.19597 0.20964 0.20052 0.20964 0.5013z" />
				<path
					d="m33.093 183.51t0 0.0182q0 0.15951-0.08203 0.28256-0.18685 0.25065-0.89779 0.25065-0.94792 0-1.6224-0.61524-0.67448-0.61523-0.67448-1.4857 0-0.87045 0.67448-1.4857 0.67448-0.61524 1.6224-0.61524 0.33268 9e-3 0.64714 0.0911 0.33268 0.10938 0.33268 0.45117v0.0319q0 0.23243-0.16406 0.36459-0.18229 0.13216-0.51953 0.0684-0.33724-0.0684-0.76562 0.10026-0.24154 0.0911-0.38281 0.34635-0.14583 0.25977-0.14583 0.5651v0.0501q0 0.46485 0.31445 0.80209 0.31445 0.33268 0.73828 0.33268 0.17318 0.0182 0.38281-0.0182 0.20964-0.0273 0.37826 0.11849 0.16406 0.13672 0.16406 0.34635z" />
				<path
					d="m34.314 184.03q-0.28255 0-0.48307-0.19597-0.19596-0.20052-0.19596-0.48307v-2.6888q0-0.28255 0.20052-0.48307 0.20508-0.20052 0.47852-0.20052h0.0091q0.27344 0 0.47396 0.20052t0.20052 0.48307v2.6888q0 0.28255-0.20052 0.48307-0.20052 0.20053-0.47396 0.19597zm0.62891-5.1315q0 0.29622-0.20964 0.5013-0.20508 0.20508-0.49219 0.20508-0.29167 0-0.49219-0.20508t-0.20508-0.5013q0-0.29622 0.20508-0.49675 0.20052-0.20507 0.49219-0.20052 0.28255 0 0.49219 0.19597 0.20964 0.20052 0.20964 0.5013z" />
				<path
					d="m36.753 181.84t0 0.30078q0 0.47396 0.25065 0.80664t0.60612 0.32357q0.20964 0.0228 0.42383-0.041 0.43294-0.15039 0.43294-0.65625 0 0 0-1.5404-0.08203-0.25977-0.47396-0.4056-0.39193-0.15039-0.81576 0.0501-0.42383 0.19596-0.42383 1.1621zm-0.66536 1.5723q-0.58333-0.61523-0.58333-1.4857 0-0.875 0.58333-1.4902 0.58333-0.61523 1.4128-0.61523 0.69726 0 0.96614 0.61523 0-0.20052 0.15039-0.35091 0.13216-0.13216 0.33268-0.13216h0.35091q0.20052 0 0.3418 0.13216 0.14128 0.15039 0.14128 0.35091v3.3268q0 0.11848-0.08203 0.1914-0.07747 0.0729-0.18685 0.0729h-0.54688q-0.11849 0-0.27344-0.16406-0.15495-0.16407-0.278-0.1823-0.12305-0.0182-0.23242 0.0547-0.45117 0.29167-0.68359 0.29167-0.82943 0-1.4128-0.61524z" />
				<path
					d="m41.606 183.35q0 0.28711-0.19596 0.48307-0.19596 0.19597-0.48763 0.19597h-0.01367q-0.27344 0-0.47396-0.19597-0.20052-0.20052-0.20052-0.48307v-4.3568q0-0.28255 0.19596-0.47851 0.19141-0.19597 0.47852-0.19597h0.01367q0.28711 0 0.48763 0.19597 0.20052 0.19596 0.19596 0.47851z" />
				<path
					d="m46.022 183.37q0 0.27799-0.19596 0.47851-0.19596 0.20052-0.47852 0.20052h-0.01367q-0.28255 0-0.48307-0.19596-0.20052-0.20052-0.20052-0.48307v-4.4616q0-0.28255 0.20052-0.48307 0.20052-0.20052 0.48307-0.20052h0.01367q0.27344 0 0.47396 0.19596t0.20052 0.48763z" />
				<path
					d="m50.871 181.87t0.0091 1.6497q0 0.25976-0.19141 0.45117-0.13216 0.1276-0.46029 0.12304h-0.0046q-0.32357 0-0.45117-0.12304-0.19141-0.18229-0.19141-0.45117v-1.7272q0-0.65169-0.39648-0.84765-0.40104-0.19597-0.86133 0.082-0.46029 0.27799-0.4375 0.55599v1.9368q0 0.26888-0.18229 0.45117-0.1276 0.1276-0.45117 0.12304 0 0-0.02279 0-0.32357 0-0.45117-0.12304-0.19141-0.19141-0.19141-0.45117v-3.2402q0-0.17773 0.13216-0.30078 0.13216-0.12305 0.29167-0.12305h0.47396q0.17773 0 0.29622 0.13217 0.11849 0.1276 0.11849 0.28255v9e-3q0.65625-0.38737 0.97526-0.44205 1.0938-0.18685 1.6771 0.5651 0.31445 0.41471 0.31901 1.4674z" />
				<path
					d="m53.059 182.05q0 0.69727 0.38281 0.89779 0.29622 0.16406 0.14128 0.61523-0.15495 0.46485-0.49219 0.46485-0.54688 0-0.87956-0.64714-0.28255-0.55599-0.28255-1.4128v-1.1165h-0.16406q-0.18685 0-0.3099-0.11849-0.1276-0.11394-0.12305-0.30534v-9e-3q0-0.17773 0.12305-0.30533 0.12305-0.12761 0.3099-0.12761h0.16406v-0.46484q0-0.31901 0.25065-0.50586 0.13672-0.10938 0.38737-0.10938h0.01823q0.15495 0 0.31445 0.20052 0.1595 0.20053 0.1595 0.41472v0.46484h0.38281q0.16862 0 0.29622 0.13216t0.1276 0.30078v9e-3q0 0.19596-0.12305 0.30989-0.12305 0.11394-0.30078 0.11394h-0.38281z" />
				<path
					d="m56.376 180.64q-0.32357 0-0.63802 0.278-0.20052 0.17773-0.278 0.57877h1.9961q-0.15039-0.52864-0.44661-0.69271-0.29622-0.16406-0.63346-0.16406zm2.0189 1.2852v5e-3q0 0.38282-0.36458 0.38282h-2.5384q0.13216 0.41471 0.26888 0.54687 0.50586 0.46485 1.349 0.0866l0.4694-0.20964q0.30534-0.13671 0.4694 0.0957 0.16406 0.23242 0.10938 0.47851l-0.0091 5e-3q-0.04557 0.20508-0.41927 0.41016-0.54232 0.30078-1.4948 0.29166-0.68359 0-1.3216-0.61067-0.63346-0.61068-0.63346-1.4811 0-0.875 0.61068-1.4948 0.61523-0.61524 1.4492-0.60157 0.83398 0.0137 1.4447 0.59701 0.61068 0.58333 0.61068 1.4994z" />
				<path
					d="m60.072 183.35q0 0.28711-0.19596 0.48307-0.19596 0.19597-0.48763 0.19597h-0.01367q-0.27344 0-0.47396-0.19597-0.20052-0.20052-0.20052-0.48307v-4.3568q0-0.28255 0.19596-0.47851 0.19141-0.19597 0.47852-0.19597h0.01367q0.28711 0 0.48763 0.19597 0.20052 0.19596 0.19596 0.47851z" />
				<path
					d="m61.909 183.35q0 0.28711-0.19596 0.48307-0.19596 0.19597-0.48763 0.19597h-0.01367q-0.27344 0-0.47396-0.19597-0.20052-0.20052-0.20052-0.48307v-4.3568q0-0.28255 0.19596-0.47851 0.19141-0.19597 0.47852-0.19597h0.01367q0.28711 0 0.48763 0.19597 0.20052 0.19596 0.19596 0.47851z" />
				<path
					d="m63.144 184.03q-0.28255 0-0.48307-0.19597-0.19596-0.20052-0.19596-0.48307v-2.6888q0-0.28255 0.20052-0.48307 0.20508-0.20052 0.47852-0.20052h0.0091q0.27344 0 0.47396 0.20052t0.20052 0.48307v2.6888q0 0.28255-0.20052 0.48307-0.20052 0.20053-0.47396 0.19597zm0.62891-5.1315q0 0.29622-0.20964 0.5013-0.20508 0.20508-0.49219 0.20508-0.29167 0-0.49219-0.20508-0.20052-0.20508-0.20508-0.5013 0-0.29622 0.20508-0.49675 0.20052-0.20507 0.49219-0.20052 0.28255 0 0.49219 0.19597 0.20964 0.20052 0.20964 0.5013z" />
				<path
					d="m67.364 182.59t0-1.4948q-0.09115-0.26433-0.48307-0.41472-0.39193-0.15039-0.80664 0.0547-0.20052 0.10026-0.31901 0.35547-0.11849 0.25521-0.11393 0.56966v0.49675q0 0.46484 0.25065 0.80208 0.25977 0.33268 0.61523 0.33268 0.20052 0.0319 0.41471-0.0365 0.43294-0.15039 0.44206-0.66536zm0.22331-2.7435h0.5332q0.22331 0 0.38737 0.16406 0.16406 0.16406 0.16862 0.39193v3.3724h-0.0091q-0.01367 0.95704-0.61068 1.4447-0.597 0.49218-1.4766 0.4375-0.05925-5e-3 -0.28255-5e-3 -0.22331 5e-3 -0.75651 0-0.25065 0-0.39648-0.20964-0.14583-0.20963-0.0638-0.44205l0.0091-5e-3q0.11849-0.33268 0.46484-0.32813 0.47396 9e-3 1.0163 9e-3 0.81575 0 0.78385-0.9388-0.45117 0.26432-0.96614 0.26888-0.82943 0-1.4128-0.61524-0.58333-0.61523-0.58333-1.4902t0.58333-1.4902q0.58333-0.61523 1.4128-0.61523 0.51497 0 0.97526 0.26888 0.0046-0.0866 0.06836-0.15039 0.0638-0.0684 0.15495-0.0684z" />
				<path
					d="m71.219 180.64q-0.32357 0-0.63802 0.278-0.20052 0.17773-0.278 0.57877h1.9961q-0.15039-0.52864-0.44661-0.69271-0.29622-0.16406-0.63346-0.16406zm2.0189 1.2852v5e-3q0 0.38282-0.36458 0.38282h-2.5384q0.13216 0.41471 0.26888 0.54687 0.50586 0.46485 1.349 0.0866l0.4694-0.20964q0.30534-0.13671 0.4694 0.0957 0.16406 0.23242 0.10938 0.47851l-0.0091 5e-3q-0.04557 0.20508-0.41927 0.41016-0.54232 0.30078-1.4948 0.29166-0.68359 0-1.3216-0.61067-0.63346-0.61068-0.63346-1.4811 0-0.875 0.61068-1.4948 0.61523-0.61524 1.4492-0.60157 0.83398 0.0137 1.4447 0.59701 0.61068 0.58333 0.61068 1.4994z" />
				<path
					d="m77.941 181.87t0.0091 1.6497q0 0.25976-0.19141 0.45117-0.13216 0.1276-0.46029 0.12304h-0.0046q-0.32357 0-0.45117-0.12304-0.19141-0.18229-0.19141-0.45117v-1.7272q0-0.65169-0.39648-0.84765-0.40104-0.19597-0.86133 0.082-0.46029 0.27799-0.4375 0.55599v1.9368q0 0.26888-0.18229 0.45117-0.1276 0.1276-0.45117 0.12304 0 0-0.02279 0-0.32357 0-0.45117-0.12304-0.19141-0.19141-0.19141-0.45117v-3.2402q0-0.17773 0.13216-0.30078t0.29167-0.12305h0.47396q0.17773 0 0.29622 0.13217 0.11849 0.1276 0.11849 0.28255v9e-3q0.65625-0.38737 0.97526-0.44205 1.0938-0.18685 1.6771 0.5651 0.31445 0.41471 0.31901 1.4674z" />
				<path
					d="m81.792 183.51t0 0.0182q0 0.15951-0.08203 0.28256-0.18685 0.25065-0.89779 0.25065-0.94792 0-1.6224-0.61524-0.67448-0.61523-0.67448-1.4857 0-0.87045 0.67448-1.4857 0.67448-0.61524 1.6224-0.61524 0.33268 9e-3 0.64714 0.0911 0.33268 0.10938 0.33268 0.45117v0.0319q0 0.23243-0.16406 0.36459-0.18229 0.13216-0.51953 0.0684-0.33724-0.0684-0.76562 0.10026-0.24154 0.0911-0.38281 0.34635-0.14583 0.25977-0.14583 0.5651v0.0501q0 0.46485 0.31445 0.80209 0.31445 0.33268 0.73828 0.33268 0.17318 0.0182 0.38281-0.0182 0.20964-0.0273 0.37826 0.11849 0.16406 0.13672 0.16406 0.34635z" />
				<path
					d="m84.34 180.64q-0.32357 0-0.63802 0.278-0.20052 0.17773-0.27799 0.57877h1.9961q-0.15039-0.52864-0.44662-0.69271-0.29622-0.16406-0.63346-0.16406zm2.0189 1.2852v5e-3q0 0.38282-0.36458 0.38282h-2.5384q0.13216 0.41471 0.26888 0.54687 0.50586 0.46485 1.349 0.0866l0.4694-0.20964q0.30534-0.13671 0.4694 0.0957 0.16406 0.23242 0.10938 0.47851l-0.0091 5e-3q-0.04557 0.20508-0.41927 0.41016-0.54232 0.30078-1.4948 0.29166-0.68359 0-1.3216-0.61067-0.63346-0.61068-0.63346-1.4811 0-0.875 0.61068-1.4948 0.61524-0.61524 1.4492-0.60157 0.83398 0.0137 1.4447 0.59701 0.61068 0.58333 0.61068 1.4994z" />
			</g>
		</g>
	</g>
</svg>